<?xml version="1.0" encoding="utf-8"?>
<!-- Designed by Vexels.com - 2016 All Rights Reserved - https://vexels.com/terms-and-conditions/  -->

<svg version="1.1" id="Layer_1" xmlns="http://www.w3.org/2000/svg" xmlns:xlink="http://www.w3.org/1999/xlink" x="0px" y="0px"
	 width="1200px" height="1200px" viewBox="0 0 1200 1200" enable-background="new 0 0 1200 1200" xml:space="preserve">
<g>
	<path fill="#575756" d="M600.01,50c-303.776,0-550,246.223-550,549.923c0,303.78,246.224,550.077,550,550.077
		c303.777,0,549.981-246.296,549.981-550.077C1149.99,296.223,903.786,50,600.01,50z M600.01,1052.992
		c-250.225,0-452.992-202.805-452.992-453.068c0-250.149,202.767-452.954,452.992-452.954s453.049,202.805,453.049,452.954
		C1053.059,850.187,850.235,1052.992,600.01,1052.992z"/>
	<g>
		<defs>
			<path id="SVGID_1_" d="M264.82,408.863C159.322,593.98,223.833,829.657,408.984,935.155
				c185.059,105.494,420.683,40.949,526.181-144.168c105.552-185.117,40.949-420.717-144.091-526.215
				C605.918,159.312,370.352,223.785,264.82,408.863z"/>
		</defs>
		<path clip-path="url(#SVGID_2_)" fill="#575756" d="M633.219,554.563c-2.88-1.608-5.851-2.956-8.881-3.929
			c34.948-79.32,109.722-250.336,136.03-321.09c-116.623-63.837-321.036-24.685-321.036-24.685l149.721,348.581
			c-7.931,4.002-14.847,10.209-19.542,18.473c-5.235,9.313-6.882,19.523-5.572,29.357l-385.716,61.704
			c0,0,70.439,195.889,184.818,263.724c38.988-57.289,136.762-189.938,216.419-296.37c2.282,2.018,4.806,3.814,7.498,5.384
			c17.202,9.8,37.958,7.33,52.525-4.412l246.315,305.573c0,0,138.539-155.385,143.663-288.26
			c-75.935-13.985-283.435-36.238-373.523-45.586C659.248,584.219,650.758,564.585,633.219,554.563z"/>
	</g>
	<path fill="#575756" d="M639.874,594.39c0-16.792-13.575-30.44-30.349-30.44c-16.716,0-30.329,13.648-30.329,30.44
		c0,16.716,13.614,30.291,30.329,30.291C626.299,624.681,639.874,611.105,639.874,594.39z"/>
</g>
</svg>
